<?xml version="1.0" standalone="no"?>
<!DOCTYPE svg PUBLIC "-//W3C//DTD SVG 20010904//EN"
 "http://www.w3.org/TR/2001/REC-SVG-20010904/DTD/svg10.dtd">
<svg version="1.0" xmlns="http://www.w3.org/2000/svg"
 width="1376.000000pt" height="1376.000000pt" viewBox="0 0 1376.000000 1376.000000"
 preserveAspectRatio="xMidYMid meet">
<metadata>
Created by potrace 1.11, written by Peter Selinger 2001-2013
</metadata>
<g transform="translate(0.000000,1376.000000) scale(0.100000,-0.100000)"
fill="#000000" stroke="none">
<path d="M4500 6880 l0 -2560 240 0 239 0 4 1023 c3 999 4 1024 24 1107 96
386 319 631 682 749 130 43 220 56 381 55 171 -1 255 -20 379 -84 221 -115
356 -335 406 -660 12 -79 15 -275 15 -1142 l0 -1048 240 0 240 0 0 1008 c0
581 -4 1056 -10 1122 -60 694 -403 1119 -996 1236 -126 25 -398 25 -514 1
-118 -25 -273 -78 -367 -125 -200 -102 -340 -232 -470 -438 -9 -15 -12 241
-12 1149 l-1 1167 -240 0 -240 0 0 -2560z"/>
<path d="M1501 7699 c-572 -60 -1065 -396 -1311 -894 -125 -252 -176 -457
-187 -755 -19 -505 143 -957 462 -1288 186 -194 398 -330 644 -413 l85 -29
507 0 508 0 82 30 c118 44 270 124 358 190 96 72 216 196 270 279 l41 64 0
-281 0 -282 240 0 240 0 0 1660 0 1660 -240 0 -240 0 -2 -267 -3 -268 -46 65
c-63 88 -196 214 -300 283 -298 198 -704 288 -1108 246z m464 -514 c255 -57
460 -163 631 -327 148 -142 241 -287 303 -474 80 -238 82 -557 6 -819 -126
-434 -474 -735 -946 -821 -140 -25 -375 -23 -506 5 -503 106 -853 464 -955
976 -25 127 -27 368 -4 497 82 453 362 780 787 922 153 51 264 66 454 61 92
-2 190 -11 230 -20z"/>
<path d="M10000 7704 c-237 -36 -456 -117 -641 -239 -119 -77 -245 -199 -307
-295 l-42 -65 0 268 0 267 -237 -2 -238 -3 -3 -1657 -2 -1658 240 0 239 0 4
1023 c3 921 5 1029 20 1092 98 400 317 644 685 764 131 43 221 56 382 55 171
-1 255 -20 379 -84 226 -117 370 -360 411 -690 6 -53 10 -465 10 -1122 l0
-1038 250 0 250 0 0 945 c0 607 4 980 11 1042 55 496 341 818 821 925 143 31
366 31 483 0 137 -37 218 -84 315 -181 96 -97 139 -164 186 -289 38 -102 61
-209 74 -341 5 -53 10 -547 10 -1098 l0 -1003 230 0 230 0 -3 1138 -3 1137
-23 100 c-85 375 -251 640 -505 810 -427 284 -1082 270 -1535 -32 -155 -104
-319 -287 -414 -464 l-18 -33 -39 77 c-157 313 -425 531 -750 611 -157 39
-361 56 -470 40z"/>
</g>
</svg>
