<!-- Generated by IcoMoon.io -->
<svg version="1.1" xmlns="http://www.w3.org/2000/svg" width="86" height="32" viewBox="0 0 86 32">
<title>logo</title>
<path d="M21.481 32h-2.963v-3.556c-1.481 2.667-4.741 4-7.852 4-5.926 0-10.667-4.296-10.667-10.815s4.741-10.815 10.667-10.815c2.963 0 6.222 1.185 7.852 3.852v-3.407h2.963v20.741zM10.667 29.481c4.296 0 7.852-2.815 7.852-7.852s-4.148-7.704-7.852-7.704c-4.296 0-7.704 2.963-7.704 7.704 0 4.593 3.407 7.852 7.704 7.852z"></path>
<path d="M31.111 32h-2.963v-32h2.963v14.667c1.333-2.667 4.444-3.852 6.815-3.852 5.037 0 8 3.407 8 9.037v12.148h-2.963v-12.148c0-3.852-1.778-6.222-5.037-6.222s-6.815 1.926-6.815 6.963v11.407z"></path>
<path d="M71.111 32h-2.963v-12.148c0-3.852-1.778-6.222-5.037-6.222s-6.815 1.926-6.815 6.963v11.407h-2.963v-20.741h2.963v3.407c1.333-2.667 5.037-3.852 6.815-3.852 3.556 0 5.926 1.63 7.259 4.593 1.926-3.852 5.63-4.593 7.704-4.593 5.037 0 8 3.407 8 9.037v12.148h-2.963v-12.148c0-3.852-1.778-6.222-5.037-6.222s-6.815 1.926-6.815 6.963v11.407z"></path>
</svg>
